<svg id="Layer_1" data-name="Layer 1" xmlns="http://www.w3.org/2000/svg" xmlns:xlink="http://www.w3.org/1999/xlink" viewBox="0 0 512 512"><defs><style>.cls-1{fill:url(#linear-gradient);}.cls-2{fill:#987d2e;}.cls-3{font-size:250px;fill:#f1e4b0;stroke:#987d2e;stroke-miterlimit:10;stroke-width:8px;font-family:FootlightMTLight, Footlight MT Light;}</style><linearGradient id="linear-gradient" x1="5" y1="256" x2="436.02" y2="256" gradientUnits="userSpaceOnUse"><stop offset="0.01" stop-color="#fff"/><stop offset="0.49" stop-color="#f5df4c"/></linearGradient></defs><path class="cls-1" d="M256,507A251,251,0,0,1,78.52,78.52a251,251,0,1,1,355,355A249.34,249.34,0,0,1,256,507Z"/><path class="cls-2" d="M256,10a246.06,246.06,0,0,1,95.75,472.67A246.06,246.06,0,0,1,160.25,29.33,244.37,244.37,0,0,1,256,10m0-10C114.62,0,0,114.62,0,256S114.62,512,256,512,512,397.38,512,256,397.38,0,256,0Z"/><text class="cls-3" transform="translate(15.26 334.9)">CCN</text></svg>